<?xml version="1.0" encoding="UTF-8" standalone="no"?>
<!-- Created with Inkscape (http://www.inkscape.org/) -->

<svg
   width="1966.0874"
   height="486.61853"
   viewBox="0 0 1966.0874 486.61853"
   version="1.1"
   id="svg5"
   inkscape:export-filename="BG-L.svg"
   inkscape:export-xdpi="96"
   inkscape:export-ydpi="96"
   xmlns:inkscape="http://www.inkscape.org/namespaces/inkscape"
   xmlns:sodipodi="http://sodipodi.sourceforge.net/DTD/sodipodi-0.dtd"
   xmlns="http://www.w3.org/2000/svg"
   xmlns:svg="http://www.w3.org/2000/svg">
  <sodipodi:namedview
     id="namedview7"
     pagecolor="#505050"
     bordercolor="#ffffff"
     borderopacity="1"
     inkscape:showpageshadow="0"
     inkscape:pageopacity="0"
     inkscape:pagecheckerboard="1"
     inkscape:deskcolor="#505050"
     inkscape:document-units="px"
     showgrid="false"
     inkscape:zoom="0.80957031"
     inkscape:cx="612.67069"
     inkscape:cy="381.68396"
     inkscape:window-width="1920"
     inkscape:window-height="1009"
     inkscape:window-x="-8"
     inkscape:window-y="-8"
     inkscape:window-maximized="1"
     inkscape:current-layer="layer1" />
  <defs
     id="defs2" />
  <g
     inkscape:label="Capa 1"
     inkscape:groupmode="layer"
     id="layer1"
     transform="translate(-5.7774837,-19.606785)">
    <text
       xml:space="preserve"
       style="font-style:normal;font-variant:normal;font-weight:normal;font-stretch:normal;font-size:240px;font-family:'Arial Rounded MT Bold';-inkscape-font-specification:'Arial Rounded MT Bold, ';fill:#c8b6ff;fill-opacity:1"
       x="520.02893"
       y="486.67792"
       id="text32271"><tspan
         sodipodi:role="line"
         id="tspan32269"
         x="520.02893"
         y="486.67792"
         style="font-size:240px">PICREM<tspan
   style="fill:#c8b6ff;fill-opacity:0"
   id="tspan32931">O</tspan>VE</tspan></text>
    <g
       id="g33276">
      <g
         id="g23542"
         transform="matrix(0.45330389,0,0,0.45330389,1271.3533,299.77787)">
        <path
           id="rect12860"
           style="fill:#fb6f92;fill-opacity:1;stroke-width:1.06662"
           d="m 577.32422,111.36914 c -2.89745,-0.005 -5.38149,2.84988 -5.37891,5.95117 -0.003,17.17887 0.001,34.35806 0,51.53711 -1.8353,-3.4e-4 -3.67057,-10e-4 -5.50586,-0.002 -19.80946,0.0106 -39.62082,-0.0215 -59.42968,0.0156 -2.8962,0.12092 -5.42533,2.67012 -5.31055,5.58399 -0.005,2.89745 2.65036,5.38344 5.53516,5.38086 21.57012,0.005 43.14057,-0.002 64.71093,-0.002 -6.4e-4,25.33467 -0.006,50.66955 0,76.00391 3.4e-4,0.14956 0.0332,0.29333 0.0449,0.44141 -0.0166,0.24072 -0.0356,0.48056 -0.0352,0.72851 -0.0542,2.89964 1.11002,5.48314 2.41992,5.57422 10.55909,0.0347 21.11839,0.006 31.67773,0.0156 7.43333,-0.009 14.86752,0.004 22.30079,-0.01 0.36571,0.024 1.0755,0.0604 3.73828,0.12305 14.75468,-1.13064 29.27005,-8.14349 38.60547,-18.94727 7.63238,-8.68991 11.736,-20.06646 10.95898,-31.30469 -0.67382,-11.23825 -6.17899,-22.05203 -14.76367,-29.91015 -10.67115,-9.89116 -21.46659,-13.17891 -29.99414,-13.5918 -0.21293,-0.0343 -0.42306,-0.081 -0.64063,-0.0879 -17.77825,-0.0265 -35.55702,-0.0121 -53.33593,-0.01 10e-4,-17.26006 0.0183,-34.52197 -0.0117,-51.78126 -0.12092,-3.11355 -2.67207,-5.83238 -5.58594,-5.70898 z m 5.60156,68.46484 c 17.22138,-6.7e-4 34.44287,0.005 51.66406,0 2.04097,0.31706 4.06053,0.752 6.03516,1.33008 5.15843,1.51645 10.01591,3.92633 14.21484,7.10938 4.09525,3.12497 7.56031,6.98842 10.01368,11.36718 2.35686,4.17162 3.78108,8.79861 4.14453,13.50196 0.75071,8.86661 -2.58135,17.86445 -8.71485,24.6289 -7.15428,8.01035 -17.88585,12.89799 -28.96093,13.84571 -16.13719,-0.007 -32.27486,-0.007 -48.41211,0 0.0259,-23.54897 0.006,-47.09904 0.0156,-70.64844 -1.9e-4,-0.37824 1.6e-4,-0.75652 0,-1.13477 z" />
        <path
           id="path19153"
           style="fill:#fb6f92;fill-opacity:1;stroke-width:1.02758"
           d="m 622.47266,95.611328 c -0.9581,0.01198 -1.91952,0.05584 -2.87305,0.02344 -14.05898,0.04368 -28.11681,0.09036 -42.17578,0.132812 -1.63293,1.370183 -3.21241,3.0877 -3.14453,5.25781 0.0407,1.92638 1.49476,3.68476 3.29687,4.50391 15.53782,-0.009 31.07599,0.018 46.61328,-0.0137 0.0416,-9.9e-4 0.0834,-0.006 0.125,-0.008 0.9144,0.0226 1.88402,0.0455 1.97266,0.0469 11.29136,0.21886 22.52665,4.83751 29.79687,12.85547 5.71103,6.20396 8.81424,14.4579 8.11524,22.58984 -0.33842,4.31364 -1.66485,8.55686 -3.85938,12.38281 -0.75954,1.33529 -0.86843,1.0845 -4.55273,5.14649 -8.62516,6.44157 1.73794,18.88703 14.62109,0.54492 4.89939,-8.68762 5.24826,-12.02824 5.57813,-17.44727 0.7235,-10.30705 -3.09843,-20.74105 -10.20508,-28.71093 -8.69239,-9.9086 -22.02919,-16.015791 -35.76758,-17.052737 -1.56494,-0.120714 -3.13462,-0.184276 -4.70508,-0.18164 -0.18762,0.0021 -0.37487,0.016 -0.5625,0.01953 -0.75318,-0.08451 -1.51207,-0.09937 -2.27343,-0.08984 z" />
        <path
           id="path22799"
           style="fill:#fb6f92;fill-opacity:1;stroke-width:0.992503"
           d="m 749.34178,172.67816 c -19.11205,0.0102 -38.22406,-0.0208 -57.33552,0.0151 -2.79423,0.11666 -5.23432,2.57611 -5.12358,5.3874 -0.005,2.79544 2.55705,5.19391 5.34028,5.19142 20.67537,0.004 41.35011,-10e-5 62.0257,0 v -10.59201 c -1.63559,-3.3e-4 -3.2713,-9.7e-4 -4.90688,-0.002 z M 631.93465,57.470082 c -2.66011,-0.08111 -5.32325,-0.0848 -7.98405,0.0095 -0.58762,0.01273 -1.17427,0.02494 -1.76187,0.03768 -5.07024,0.274106 -10.13626,0.71058 -15.1484,1.539525 -4.83742,0.720072 -9.61701,1.792095 -14.34377,3.039477 -4.8408,1.343234 -9.62643,2.896037 -14.28724,4.774976 -4.3325,1.69849 -8.55044,3.682069 -12.678,5.828335 -4.39569,2.347933 -8.68687,4.896861 -12.78351,7.737194 -3.76175,2.547643 -7.33799,5.36109 -10.80305,8.296851 -3.68723,3.216466 -7.23701,6.594426 -10.51852,10.226438 -3.08739,3.326692 -5.92459,6.879312 -8.61531,10.531702 -2.74518,3.84668 -5.33689,7.80857 -7.59964,11.96006 -2.25553,3.98589 -4.19409,8.144 -5.96023,12.36706 -1.75208,4.38377 -3.31524,8.84791 -4.51306,13.41668 -1.11141,3.98689 -1.91311,8.05242 -2.58157,12.13529 -0.61525,4.16903 -1.04638,8.36803 -1.206,12.58001 -0.18132,4.65413 -0.0825,9.31928 0.326,13.95936 0.31421,3.96472 0.91381,7.90004 1.6394,11.80931 0.85249,4.21388 1.87888,8.39749 3.19587,12.49143 1.43069,4.53994 3.16275,8.98175 5.14809,13.30738 1.81731,3.95261 3.8727,7.79609 6.11287,11.52476 2.4816,4.06566 5.17339,8.00363 8.12725,11.74147 2.75137,3.56111 5.76587,6.91354 8.89043,10.14918 3.47758,3.4948 7.11753,6.83113 10.98395,9.8929 3.33881,2.71935 6.87527,5.18339 10.46764,7.55441 4.44087,2.81515 9.01114,5.43237 13.75962,7.69574 4.21224,2.06537 8.56077,3.84644 12.96819,5.44958 4.77619,1.67652 9.62859,3.13865 14.56424,4.26808 4.534,1.0852 9.13783,1.86519 13.75774,2.47794 5.04663,0.61002 10.1223,0.99334 15.2068,1.0364 4.71507,0.0808 9.43221,-0.14092 14.12896,-0.55024 5.05669,-0.48978 10.0918,-1.21266 15.0636,-2.26311 4.26584,-0.85745 8.46633,-2.00515 12.63277,-3.25429 4.99374,-1.60651 9.92756,-3.41724 14.70368,-5.5928 4.05703,-1.78386 7.9756,-3.86139 11.83756,-6.03184 4.29331,-2.54639 8.50674,-5.23912 12.48203,-8.26294 3.83218,-2.81877 7.44548,-5.92562 10.92931,-9.16177 3.52557,-3.3766 6.91097,-6.90345 10.01161,-10.6768 2.89421,-3.42681 5.52593,-7.06919 8.02173,-10.79363 1.92592,-2.97175 3.72606,-6.01727 5.42509,-9.12409 2.26801,-4.36755 4.3688,-8.83003 6.07707,-13.4487 1.63244,-4.20354 2.92499,-8.53155 4.04761,-12.89658 1.06936,-4.50225 1.96399,-9.05194 2.47229,-13.65409 0.54461,-4.20872 0.74606,-8.45373 0.80839,-12.69495 -0.002,-1.43887 -0.0619,-2.87683 -0.11118,-4.3152 h -13.51465 c 0.16507,4.90239 -0.0171,9.81601 -0.55024,14.6905 -0.56394,5.04495 -1.51112,10.04739 -2.83031,14.94865 -1.30976,4.88976 -2.99845,9.67306 -5.01805,14.31362 -1.86473,4.27751 -4.03754,8.41545 -6.44076,12.41419 -2.65153,4.33248 -5.5992,8.47949 -8.82635,12.40288 -3.31406,4.00881 -6.91457,7.78023 -10.75783,11.28544 -3.81919,3.47132 -7.87904,6.67528 -12.13907,9.58952 -4.35313,2.97064 -8.90511,5.65201 -13.62771,7.99347 -4.88907,2.44737 -9.96096,4.52451 -15.14275,6.26739 -5.10034,1.69343 -10.31218,3.05265 -15.5931,4.05327 -5.37408,1.01689 -10.81584,1.65117 -16.27713,1.94654 -5.3935,0.26014 -10.80241,0.1757 -16.18479,-0.26569 -5.33995,-0.45519 -10.65002,-1.25864 -15.88518,-2.40821 -5.23558,-1.16504 -10.39432,-2.67296 -15.43105,-4.5187 -4.95575,-1.83171 -9.79187,-3.98467 -14.45684,-6.46714 -4.75404,-2.52336 -9.32348,-5.39198 -13.68236,-8.54936 -4.13011,-3.02942 -8.07305,-6.31437 -11.75089,-9.88159 -3.79623,-3.65416 -7.31462,-7.59629 -10.54112,-11.7622 -3.15776,-4.08906 -6.01381,-8.40991 -8.53993,-12.91731 -2.48793,-4.44439 -4.64722,-9.071 -6.45583,-13.8331 -1.81708,-4.76472 -3.25266,-9.67324 -4.33403,-14.65658 -1.06932,-4.96195 -1.75182,-10.00629 -2.0615,-15.07303 -0.30229,-5.05615 -0.21904,-10.13367 0.23931,-15.17854 0.46328,-4.99638 1.29506,-9.96004 2.50055,-14.83182 1.21222,-4.93547 2.80259,-9.77684 4.74483,-14.47379 1.62692,-3.94613 3.49895,-7.7958 5.60598,-11.5078 2.52738,-4.4702 5.38462,-8.75445 8.54371,-12.80236 3.21176,-4.13937 6.72697,-8.04498 10.51474,-11.66421 3.74402,-3.607654 7.75694,-6.936065 11.96947,-9.981475 4.21167,-3.040318 8.63256,-5.791572 13.2188,-8.229014 4.83003,-2.561468 9.83498,-4.79634 14.97692,-6.653685 5.01429,-1.824858 10.15433,-3.304833 15.36887,-4.433906 5.34453,-1.159885 10.76778,-1.958069 16.2206,-2.372413 3.11431,-0.269751 6.23202,-0.329488 9.35586,-0.384411 2.29741,0.0047 4.61076,0.0729 6.81574,0.199743 6.67406,0.374216 13.51135,1.337693 20.11934,2.864231 2.31183,0.531223 4.65129,1.145155 6.8327,1.786377 7.76464,2.274799 15.29339,5.35308 22.42582,9.173079 0.81788,0.440983 1.92681,1.053826 2.84538,1.580981 2.62231,1.502692 5.23146,3.138273 7.64675,4.791935 2.97121,2.026688 5.90523,4.254822 8.5908,6.4954 10.04321,8.371848 18.59825,18.546168 24.99797,29.953838 0.4281,0.76812 1.0177,1.84398 1.48299,2.74174 3.11751,5.95132 5.62182,12.21933 7.51107,18.6665 1.26402,10.11222 14.35909,9.12147 13.88211,1.48968 -0.80287,-3.05307 -1.7133,-7.56674 -2.7361,-10.55346 -1.71637,-4.70777 -3.65445,-9.3408 -5.96213,-13.79165 -2.03812,-4.07357 -4.39801,-7.97867 -6.893,-11.7867 -2.68013,-3.94872 -5.5298,-7.786 -8.66242,-11.38909 -2.81707,-3.34994 -5.89602,-6.469869 -9.0487,-9.502839 -3.81726,-3.52552 -7.79362,-6.883923 -12.01282,-9.921171 -3.43989,-2.543586 -7.05467,-4.841722 -10.72767,-7.032442 -4.63393,-2.670807 -9.40263,-5.115421 -14.32871,-7.20392 -4.27824,-1.860034 -8.67632,-3.43425 -13.12458,-4.835276 -4.81377,-1.458295 -9.69332,-2.703582 -14.6415,-3.614209 -4.34738,-0.85254 -8.74813,-1.398253 -13.15474,-1.839138 -2.65291,-0.211055 -5.31074,-0.369254 -7.97086,-0.450363 z" />
      </g>
      <path
         id="rect234"
         style="fill:#c8b6ff;stroke-width:0.370844"
         d="m 1480.0818,314.15373 c -4.1289,0 -7.4534,3.32376 -7.4534,7.45269 v 146.49926 c 0,4.67623 2.478,12.3558 6.6916,16.56331 5.0667,5.05933 14.7968,8.01736 19.9283,8.01736 h 131.925 c 4.1289,0 7.4534,-3.32451 7.4534,-7.45344 V 321.60642 c 0,-4.12893 -3.3245,-7.45269 -7.4534,-7.45269 z m 7.7443,8.63899 h 137.2967 c 2.6952,0 4.8649,2.16977 4.8649,4.86493 v 106.80716 c 0,2.69517 -2.1697,4.86493 -4.8649,4.86493 h -137.2967 c -2.6951,0 -4.8649,-2.16976 -4.8649,-4.86493 V 327.65765 c 0,-2.69516 2.1698,-4.86493 4.8649,-4.86493 z m 84.8309,131.71964 c 2.303,0 4.2776,0.46968 5.924,1.40903 1.6565,0.92925 2.909,2.25748 3.7574,3.98466 0.8485,1.71709 1.2727,3.73721 1.2727,6.06033 0,1.71709 -0.2323,3.27763 -0.6969,4.68161 -0.4647,1.40396 -1.1616,2.62109 -2.0909,3.65134 -0.9292,1.03025 -2.0706,1.8181 -3.4241,2.36352 -1.3534,0.54543 -2.9039,0.81814 -4.6513,0.81814 -1.7372,0 -3.2927,-0.27776 -4.6664,-0.83329 -1.3737,-0.56563 -2.5201,-1.35852 -3.4392,-2.37868 -0.9192,-1.02014 -1.6161,-2.24737 -2.0908,-3.68164 -0.4647,-1.43428 -0.697,-2.98472 -0.697,-4.6513 0,-1.70699 0.2424,-3.27258 0.7273,-4.69675 0.4949,-1.42418 1.207,-2.63625 2.1362,-3.6362 0.9293,-0.99995 2.0605,-1.76255 3.3938,-2.28777 1.3333,-0.53533 2.8484,-0.803 4.5452,-0.803 z m 14.6812,0 c 0.7676,0 1.308,0.23737 1.6211,0.7121 0.3232,0.46462 0.6515,1.21206 0.9848,2.24231 l 5.0301,14.89326 5.0452,-14.99931 c 0.2626,-0.78783 0.4596,-1.33327 0.5909,-1.63629 0.1313,-0.31312 0.3485,-0.59088 0.6515,-0.83329 0.303,-0.25251 0.7171,-0.37878 1.2423,-0.37878 0.3839,0 0.7374,0.096 1.0606,0.28787 0.3333,0.19191 0.5909,0.44948 0.7727,0.77269 0.1919,0.31312 0.2879,0.63129 0.2879,0.95451 0,0.22221 -0.03,0.46462 -0.091,0.72724 -0.061,0.25251 -0.1364,0.50502 -0.2273,0.75753 -0.091,0.24242 -0.1818,0.49493 -0.2727,0.75754 l -5.3786,14.51448 c -0.1919,0.55553 -0.3838,1.08581 -0.5757,1.59083 -0.1919,0.49493 -0.4141,0.93431 -0.6666,1.31813 -0.2525,0.37372 -0.5909,0.68179 -1.0151,0.9242 -0.4141,0.24241 -0.9242,0.36361 -1.5303,0.36361 -0.606,0 -1.1211,-0.1212 -1.5453,-0.36361 -0.4142,-0.23232 -0.7525,-0.54039 -1.0151,-0.9242 -0.2526,-0.39392 -0.4748,-0.83835 -0.6667,-1.33328 -0.1919,-0.49492 -0.3838,-1.02015 -0.5757,-1.57568 l -5.2876,-14.39326 c -0.091,-0.26262 -0.1869,-0.52019 -0.2879,-0.7727 -0.091,-0.25251 -0.1717,-0.52523 -0.2424,-0.81815 -0.061,-0.2929 -0.091,-0.54037 -0.091,-0.74239 0,-0.51512 0.207,-0.9848 0.6212,-1.40902 0.4141,-0.42422 0.9343,-0.63634 1.5605,-0.63634 z m -90.5867,0.37878 h 7.3178 c 1.0101,0 1.8737,0.0454 2.5908,0.13635 0.7171,0.0808 1.3636,0.25252 1.9393,0.51513 0.6969,0.29292 1.3131,0.71209 1.8484,1.25752 0.5353,0.54543 0.9394,1.18177 1.2121,1.909 0.2828,0.71713 0.4242,1.47974 0.4242,2.28777 0,1.65649 -0.4697,2.97966 -1.409,3.96951 -0.9293,0.98986 -2.3434,1.69185 -4.2422,2.10597 0.7979,0.42422 1.5605,1.05046 2.2877,1.8787 0.7273,0.82824 1.3737,1.71204 1.9393,2.65139 0.5758,0.92925 1.0202,1.77265 1.3333,2.53019 0.3232,0.74744 0.4848,1.26257 0.4848,1.54538 0,0.29292 -0.096,0.58583 -0.2878,0.87875 -0.1818,0.28281 -0.4344,0.50502 -0.7576,0.66663 -0.3232,0.17171 -0.6969,0.25756 -1.1211,0.25756 -0.5051,0 -0.9293,-0.1212 -1.2727,-0.36361 -0.3434,-0.23232 -0.6414,-0.53028 -0.8939,-0.8939 -0.2424,-0.36362 -0.5757,-0.89895 -1,-1.60599 l -1.8029,-2.99985 c -0.6464,-1.10097 -1.2272,-1.93931 -1.7423,-2.51504 -0.5051,-0.57573 -1.0202,-0.96965 -1.5454,-1.18176 -0.5253,-0.21211 -1.1868,-0.31818 -1.9848,-0.31818 h -1.5757 v 7.13604 c 0,0.93935 -0.207,1.63124 -0.6212,2.07566 -0.4141,0.44443 -0.9545,0.66663 -1.6211,0.66663 -0.7171,0 -1.2727,-0.23231 -1.6666,-0.69693 -0.3939,-0.46463 -0.5909,-1.14641 -0.5909,-2.04536 v -17.09012 c 0,-0.96965 0.2172,-1.67164 0.6515,-2.10596 0.4343,-0.43432 1.1363,-0.65148 2.106,-0.65148 z m 22.3474,0 h 11.8783 c 0.7171,0 1.2474,0.16161 1.5908,0.48483 0.3535,0.31311 0.5303,0.72724 0.5303,1.24236 0,0.52523 -0.1768,0.94945 -0.5303,1.27267 -0.3434,0.31311 -0.8737,0.46967 -1.5908,0.46967 h -10.1359 v 5.45429 h 9.3329 c 0.6868,0 1.1969,0.15656 1.5302,0.46968 0.3434,0.30302 0.5151,0.70704 0.5151,1.21207 0,0.50502 -0.1666,0.91915 -0.4999,1.24236 -0.3334,0.31312 -0.8485,0.46968 -1.5454,0.46968 h -9.3329 v 6.31789 h 10.4843 c 0.7071,0 1.2373,0.16665 1.5909,0.49997 0.3636,0.32322 0.5454,0.75754 0.5454,1.30297 0,0.52523 -0.1818,0.95451 -0.5454,1.28782 -0.3536,0.32322 -0.8838,0.48483 -1.5909,0.48483 h -12.2267 c -0.9797,0 -1.6868,-0.21717 -2.1211,-0.65149 -0.4242,-0.43432 -0.6363,-1.13632 -0.6363,-2.10596 v -16.6962 c 0,-0.64643 0.096,-1.17166 0.2878,-1.57568 0.192,-0.41413 0.4899,-0.71209 0.8939,-0.8939 0.4142,-0.19191 0.9394,-0.28786 1.5757,-0.28786 z m 20.5445,0 h 1.3939 c 0.8383,0 1.4444,0.0758 1.8181,0.22726 0.3838,0.15151 0.6666,0.42422 0.8484,0.81814 0.1819,0.39392 0.3889,1.03531 0.6212,1.92415 l 3.2272,12.16611 3.2271,-12.16611 c 0.2323,-0.88884 0.4394,-1.53023 0.6212,-1.92415 0.1818,-0.39392 0.4595,-0.66663 0.8333,-0.81814 0.3838,-0.15151 0.9949,-0.22726 1.8332,-0.22726 h 1.3939 c 0.8585,0 1.5403,0.17171 2.0453,0.51512 0.5051,0.33332 0.7576,0.98481 0.7576,1.95446 v 17.57494 c 0,0.84844 -0.1919,1.48478 -0.5758,1.909 -0.3737,0.42423 -0.8787,0.63633 -1.515,0.63633 -0.596,0 -1.0858,-0.2121 -1.4697,-0.63633 -0.3838,-0.42422 -0.5757,-1.06056 -0.5757,-1.909 v -15.33262 l -3.5604,14.15086 c -0.2323,0.91915 -0.4243,1.59588 -0.5758,2.0302 -0.1414,0.42423 -0.409,0.8131 -0.803,1.16662 -0.3939,0.35351 -0.9393,0.53027 -1.6362,0.53027 -0.5253,0 -0.9697,-0.11615 -1.3333,-0.34846 -0.3636,-0.22221 -0.6465,-0.51008 -0.8485,-0.8636 -0.202,-0.35352 -0.3636,-0.74239 -0.4848,-1.16661 -0.1111,-0.43432 -0.2273,-0.8838 -0.3485,-1.34842 l -3.5604,-14.15086 v 15.33262 c 0,0.84844 -0.1919,1.48478 -0.5757,1.909 -0.3737,0.42423 -0.8737,0.63633 -1.5,0.63633 -0.606,0 -1.1009,-0.20705 -1.4847,-0.62117 -0.3839,-0.42423 -0.5758,-1.06561 -0.5758,-1.92416 v -17.57494 c 0,-0.96965 0.2525,-1.62114 0.7576,-1.95446 0.505,-0.34341 1.1868,-0.51512 2.0453,-0.51512 z m 71.1179,0 h 11.8783 c 0.7171,0 1.2474,0.16161 1.5908,0.48483 0.3535,0.31311 0.5303,0.72724 0.5303,1.24236 0,0.52523 -0.1768,0.94945 -0.5303,1.27267 -0.3434,0.31311 -0.8737,0.46967 -1.5908,0.46967 h -10.1359 v 5.45429 h 9.3329 c 0.6868,0 1.1969,0.15656 1.5302,0.46968 0.3434,0.30302 0.5151,0.70704 0.5151,1.21207 0,0.50502 -0.1666,0.91915 -0.4999,1.24236 -0.3334,0.31312 -0.8485,0.46968 -1.5454,0.46968 h -9.3329 v 6.31789 h 10.4843 c 0.7071,0 1.2374,0.16665 1.5909,0.49997 0.3636,0.32322 0.5454,0.75754 0.5454,1.30297 0,0.52523 -0.1818,0.95451 -0.5454,1.28782 -0.3535,0.32322 -0.8838,0.48483 -1.5909,0.48483 h -12.2267 c -0.9797,0 -1.6868,-0.21717 -2.1211,-0.65149 -0.4242,-0.43432 -0.6363,-1.13632 -0.6363,-2.10596 v -16.6962 c 0,-0.64643 0.096,-1.17166 0.2879,-1.57568 0.1919,-0.41413 0.4898,-0.71209 0.8939,-0.8939 0.4141,-0.19191 0.9393,-0.28786 1.5756,-0.28786 z m -38.1043,3.19682 c -0.8989,0 -1.7322,0.17171 -2.4998,0.51512 -0.7576,0.33332 -1.4141,0.8232 -1.9696,1.46963 -0.5455,0.64644 -0.9798,1.47468 -1.303,2.48474 -0.3131,0.99995 -0.4697,2.12617 -0.4697,3.37863 0,1.26256 0.1566,2.40394 0.4697,3.42408 0.3232,1.02015 0.7727,1.86861 1.3484,2.54534 0.5858,0.66663 1.2525,1.16661 1.9999,1.49993 0.7576,0.33332 1.5858,0.49997 2.4848,0.49997 1.1514,0 2.2069,-0.28786 3.1665,-0.86359 0.9696,-0.57573 1.7373,-1.46458 2.3029,-2.66655 0.5757,-1.20195 0.8636,-2.6817 0.8636,-4.43918 0,-1.62619 -0.2626,-3.03521 -0.7878,-4.22708 -0.5253,-1.19186 -1.2778,-2.09082 -2.2575,-2.69684 -0.9697,-0.61613 -2.0858,-0.9242 -3.3484,-0.9242 z m -74.1632,0.1818 v 6.10579 h 4.0301 c 1.0808,0 1.9898,-0.0909 2.7272,-0.27272 0.7373,-0.19191 1.2979,-0.51008 1.6817,-0.9545 0.3939,-0.45453 0.5909,-1.07571 0.5909,-1.86355 0,-0.61613 -0.1565,-1.15651 -0.4697,-1.62114 -0.3131,-0.47472 -0.7474,-0.82824 -1.3029,-1.06056 -0.5253,-0.22221 -1.5606,-0.33332 -3.106,-0.33332 z"
         sodipodi:nodetypes="ssssssssssssssssssssccssssscscscscssccccccsccscccccccsccsccccsssssccscsccsccsccscccccsscsssssssssscscsccscscsccscscsscssccssscscccscsscsscssscccsscscccscscsscssscscsccscscsccscscsscssccsscccscccsccsscsccsccsccsc" />
      <path
         id="path26672"
         style="fill:#006d77;fill-opacity:1;stroke-width:0.447021"
         d="m 1472.6284,437.22302 v 30.88266 c 0,4.67622 2.4777,12.35612 6.6913,16.56362 5.0667,5.05931 14.7971,8.01705 19.9286,8.01705 h 6.0265 c 2.8958,0 -7.3968,-2.96328 -8.9011,-6.26502 -1.0921,-2.39694 0.8083,-7.86054 0.8083,-7.86054 0,0 -6.8289,-0.68882 -13.1125,-5.0916 -11.0598,-8.87958 -11.4411,-36.24617 -11.4411,-36.24617 z"
         sodipodi:nodetypes="csssssccc" />
    </g>
    <g
       id="g32189"
       transform="matrix(2.0453356,0,0,2.0453356,-1019.0653,-97.813958)">
      <path
         id="path32183"
         style="fill:#fb6f92;fill-opacity:1;stroke-width:1.06662"
         d="m 577.32422,111.36914 c -2.89745,-0.005 -5.38149,2.84988 -5.37891,5.95117 -0.003,17.17887 0.001,34.35806 0,51.53711 -1.8353,-3.4e-4 -3.67057,-10e-4 -5.50586,-0.002 -19.80946,0.0106 -39.62082,-0.0215 -59.42968,0.0156 -2.8962,0.12092 -5.42533,2.67012 -5.31055,5.58399 -0.005,2.89745 2.65036,5.38344 5.53516,5.38086 21.57012,0.005 43.14057,-0.002 64.71093,-0.002 -6.4e-4,25.33467 -0.006,50.66955 0,76.00391 3.4e-4,0.14956 0.0332,0.29333 0.0449,0.44141 -0.0166,0.24072 -0.0356,0.48056 -0.0352,0.72851 -0.0542,2.89964 1.11002,5.48314 2.41992,5.57422 10.55909,0.0347 21.11839,0.006 31.67773,0.0156 7.43333,-0.009 14.86752,0.004 22.30079,-0.01 0.36571,0.024 1.0755,0.0604 3.73828,0.12305 14.75468,-1.13064 29.27005,-8.14349 38.60547,-18.94727 7.63238,-8.68991 11.736,-20.06646 10.95898,-31.30469 -0.67382,-11.23825 -6.17899,-22.05203 -14.76367,-29.91015 -10.67115,-9.89116 -21.46659,-13.17891 -29.99414,-13.5918 -0.21293,-0.0343 -0.42306,-0.081 -0.64063,-0.0879 -17.77825,-0.0265 -35.55702,-0.0121 -53.33593,-0.01 10e-4,-17.26006 0.0183,-34.52197 -0.0117,-51.78126 -0.12092,-3.11355 -2.67207,-5.83238 -5.58594,-5.70898 z m 5.60156,68.46484 c 17.22138,-6.7e-4 34.44287,0.005 51.66406,0 2.04097,0.31706 4.06053,0.752 6.03516,1.33008 5.15843,1.51645 10.01591,3.92633 14.21484,7.10938 4.09525,3.12497 7.56031,6.98842 10.01368,11.36718 2.35686,4.17162 3.78108,8.79861 4.14453,13.50196 0.75071,8.86661 -2.58135,17.86445 -8.71485,24.6289 -7.15428,8.01035 -17.88585,12.89799 -28.96093,13.84571 -16.13719,-0.007 -32.27486,-0.007 -48.41211,0 0.0259,-23.54897 0.006,-47.09904 0.0156,-70.64844 -1.9e-4,-0.37824 1.6e-4,-0.75652 0,-1.13477 z" />
      <path
         id="path32185"
         style="fill:#fb6f92;fill-opacity:1;stroke-width:1.02758"
         d="m 622.47266,95.611328 c -0.9581,0.01198 -1.91952,0.05584 -2.87305,0.02344 -14.05898,0.04368 -28.11681,0.09036 -42.17578,0.132812 -1.63293,1.370183 -3.21241,3.0877 -3.14453,5.25781 0.0407,1.92638 1.49476,3.68476 3.29687,4.50391 15.53782,-0.009 31.07599,0.018 46.61328,-0.0137 0.0416,-9.9e-4 0.0834,-0.006 0.125,-0.008 0.9144,0.0226 1.88402,0.0455 1.97266,0.0469 11.29136,0.21886 22.52665,4.83751 29.79687,12.85547 5.71103,6.20396 8.81424,14.4579 8.11524,22.58984 -0.33842,4.31364 -1.66485,8.55686 -3.85938,12.38281 -0.75954,1.33529 -0.86843,1.0845 -4.55273,5.14649 -8.62516,6.44157 1.73794,18.88703 14.62109,0.54492 4.89939,-8.68762 5.24826,-12.02824 5.57813,-17.44727 0.7235,-10.30705 -3.09843,-20.74105 -10.20508,-28.71093 -8.69239,-9.9086 -22.02919,-16.015791 -35.76758,-17.052737 -1.56494,-0.120714 -3.13462,-0.184276 -4.70508,-0.18164 -0.18762,0.0021 -0.37487,0.016 -0.5625,0.01953 -0.75318,-0.08451 -1.51207,-0.09937 -2.27343,-0.08984 z" />
      <path
         id="path32187"
         style="fill:#fb6f92;fill-opacity:1;stroke-width:0.992503"
         d="m 749.34178,172.67816 c -19.11205,0.0102 -38.22406,-0.0208 -57.33552,0.0151 -2.79423,0.11666 -5.23432,2.57611 -5.12358,5.3874 -0.005,2.79544 2.55705,5.19391 5.34028,5.19142 20.67537,0.004 41.35011,-10e-5 62.0257,0 v -10.59201 c -1.63559,-3.3e-4 -3.2713,-9.7e-4 -4.90688,-0.002 z M 631.93465,57.470082 c -2.66011,-0.08111 -5.32325,-0.0848 -7.98405,0.0095 -0.58762,0.01273 -1.17427,0.02494 -1.76187,0.03768 -5.07024,0.274106 -10.13626,0.71058 -15.1484,1.539525 -4.83742,0.720072 -9.61701,1.792095 -14.34377,3.039477 -4.8408,1.343234 -9.62643,2.896037 -14.28724,4.774976 -4.3325,1.69849 -8.55044,3.682069 -12.678,5.828335 -4.39569,2.347933 -8.68687,4.896861 -12.78351,7.737194 -3.76175,2.547643 -7.33799,5.36109 -10.80305,8.296851 -3.68723,3.216466 -7.23701,6.594426 -10.51852,10.226438 -3.08739,3.326692 -5.92459,6.879312 -8.61531,10.531702 -2.74518,3.84668 -5.33689,7.80857 -7.59964,11.96006 -2.25553,3.98589 -4.19409,8.144 -5.96023,12.36706 -1.75208,4.38377 -3.31524,8.84791 -4.51306,13.41668 -1.11141,3.98689 -1.91311,8.05242 -2.58157,12.13529 -0.61525,4.16903 -1.04638,8.36803 -1.206,12.58001 -0.18132,4.65413 -0.0825,9.31928 0.326,13.95936 0.31421,3.96472 0.91381,7.90004 1.6394,11.80931 0.85249,4.21388 1.87888,8.39749 3.19587,12.49143 1.43069,4.53994 3.16275,8.98175 5.14809,13.30738 1.81731,3.95261 3.8727,7.79609 6.11287,11.52476 2.4816,4.06566 5.17339,8.00363 8.12725,11.74147 2.75137,3.56111 5.76587,6.91354 8.89043,10.14918 3.47758,3.4948 7.11753,6.83113 10.98395,9.8929 3.33881,2.71935 6.87527,5.18339 10.46764,7.55441 4.44087,2.81515 9.01114,5.43237 13.75962,7.69574 4.21224,2.06537 8.56077,3.84644 12.96819,5.44958 4.77619,1.67652 9.62859,3.13865 14.56424,4.26808 4.534,1.0852 9.13783,1.86519 13.75774,2.47794 5.04663,0.61002 10.1223,0.99334 15.2068,1.0364 4.71507,0.0808 9.43221,-0.14092 14.12896,-0.55024 5.05669,-0.48978 10.0918,-1.21266 15.0636,-2.26311 4.26584,-0.85745 8.46633,-2.00515 12.63277,-3.25429 4.99374,-1.60651 9.92756,-3.41724 14.70368,-5.5928 4.05703,-1.78386 7.9756,-3.86139 11.83756,-6.03184 4.29331,-2.54639 8.50674,-5.23912 12.48203,-8.26294 3.83218,-2.81877 7.44548,-5.92562 10.92931,-9.16177 3.52557,-3.3766 6.91097,-6.90345 10.01161,-10.6768 2.89421,-3.42681 5.52593,-7.06919 8.02173,-10.79363 1.92592,-2.97175 3.72606,-6.01727 5.42509,-9.12409 2.26801,-4.36755 4.3688,-8.83003 6.07707,-13.4487 1.63244,-4.20354 2.92499,-8.53155 4.04761,-12.89658 1.06936,-4.50225 1.96399,-9.05194 2.47229,-13.65409 0.54461,-4.20872 0.74606,-8.45373 0.80839,-12.69495 -0.002,-1.43887 -0.0619,-2.87683 -0.11118,-4.3152 h -13.51465 c 0.16507,4.90239 -0.0171,9.81601 -0.55024,14.6905 -0.56394,5.04495 -1.51112,10.04739 -2.83031,14.94865 -1.30976,4.88976 -2.99845,9.67306 -5.01805,14.31362 -1.86473,4.27751 -4.03754,8.41545 -6.44076,12.41419 -2.65153,4.33248 -5.5992,8.47949 -8.82635,12.40288 -3.31406,4.00881 -6.91457,7.78023 -10.75783,11.28544 -3.81919,3.47132 -7.87904,6.67528 -12.13907,9.58952 -4.35313,2.97064 -8.90511,5.65201 -13.62771,7.99347 -4.88907,2.44737 -9.96096,4.52451 -15.14275,6.26739 -5.10034,1.69343 -10.31218,3.05265 -15.5931,4.05327 -5.37408,1.01689 -10.81584,1.65117 -16.27713,1.94654 -5.3935,0.26014 -10.80241,0.1757 -16.18479,-0.26569 -5.33995,-0.45519 -10.65002,-1.25864 -15.88518,-2.40821 -5.23558,-1.16504 -10.39432,-2.67296 -15.43105,-4.5187 -4.95575,-1.83171 -9.79187,-3.98467 -14.45684,-6.46714 -4.75404,-2.52336 -9.32348,-5.39198 -13.68236,-8.54936 -4.13011,-3.02942 -8.07305,-6.31437 -11.75089,-9.88159 -3.79623,-3.65416 -7.31462,-7.59629 -10.54112,-11.7622 -3.15776,-4.08906 -6.01381,-8.40991 -8.53993,-12.91731 -2.48793,-4.44439 -4.64722,-9.071 -6.45583,-13.8331 -1.81708,-4.76472 -3.25266,-9.67324 -4.33403,-14.65658 -1.06932,-4.96195 -1.75182,-10.00629 -2.0615,-15.07303 -0.30229,-5.05615 -0.21904,-10.13367 0.23931,-15.17854 0.46328,-4.99638 1.29506,-9.96004 2.50055,-14.83182 1.21222,-4.93547 2.80259,-9.77684 4.74483,-14.47379 1.62692,-3.94613 3.49895,-7.7958 5.60598,-11.5078 2.52738,-4.4702 5.38462,-8.75445 8.54371,-12.80236 3.21176,-4.13937 6.72697,-8.04498 10.51474,-11.66421 3.74402,-3.607654 7.75694,-6.936065 11.96947,-9.981475 4.21167,-3.040318 8.63256,-5.791572 13.2188,-8.229014 4.83003,-2.561468 9.83498,-4.79634 14.97692,-6.653685 5.01429,-1.824858 10.15433,-3.304833 15.36887,-4.433906 5.34453,-1.159885 10.76778,-1.958069 16.2206,-2.372413 3.11431,-0.269751 6.23202,-0.329488 9.35586,-0.384411 2.29741,0.0047 4.61076,0.0729 6.81574,0.199743 6.67406,0.374216 13.51135,1.337693 20.11934,2.864231 2.31183,0.531223 4.65129,1.145155 6.8327,1.786377 7.76464,2.274799 15.29339,5.35308 22.42582,9.173079 0.81788,0.440983 1.92681,1.053826 2.84538,1.580981 2.62231,1.502692 5.23146,3.138273 7.64675,4.791935 2.97121,2.026688 5.90523,4.254822 8.5908,6.4954 10.04321,8.371848 18.59825,18.546168 24.99797,29.953838 0.4281,0.76812 1.0177,1.84398 1.48299,2.74174 3.11751,5.95132 5.62182,12.21933 7.51107,18.6665 1.26402,10.11222 14.35909,9.12147 13.88211,1.48968 -0.80287,-3.05307 -1.7133,-7.56674 -2.7361,-10.55346 -1.71637,-4.70777 -3.65445,-9.3408 -5.96213,-13.79165 -2.03812,-4.07357 -4.39801,-7.97867 -6.893,-11.7867 -2.68013,-3.94872 -5.5298,-7.786 -8.66242,-11.38909 -2.81707,-3.34994 -5.89602,-6.469869 -9.0487,-9.502839 -3.81726,-3.52552 -7.79362,-6.883923 -12.01282,-9.921171 -3.43989,-2.543586 -7.05467,-4.841722 -10.72767,-7.032442 -4.63393,-2.670807 -9.40263,-5.115421 -14.32871,-7.20392 -4.27824,-1.860034 -8.67632,-3.43425 -13.12458,-4.835276 -4.81377,-1.458295 -9.69332,-2.703582 -14.6415,-3.614209 -4.34738,-0.85254 -8.74813,-1.398253 -13.15474,-1.839138 -2.65291,-0.211055 -5.31074,-0.369254 -7.97086,-0.450363 z" />
    </g>
  </g>
</svg>
